<svg version="1.1" id="honey" xmlns="http://www.w3.org/2000/svg" x="0" y="0" width="512" height="512" viewBox="0 0 512 512" xml:space="preserve"><style>.st0{fill:#111827}</style><path class="st0" d="M419.1 334.5v13.7c0 3.8 3.1 6.8 6.8 6.8s6.8-3.1 6.8-6.8v-13.7c0-3.8-3.1-6.8-6.8-6.8s-6.8 3-6.8 6.8zM425.9 368.6c-3.8 0-6.8 3.1-6.8 6.8v13.7c0 3.8 3.1 6.8 6.8 6.8s6.8-3.1 6.8-6.8v-13.7c0-3.7-3-6.8-6.8-6.8zM412.3 355h-13.7c-3.8 0-6.8 3.1-6.8 6.8 0 3.8 3.1 6.8 6.8 6.8h13.7c3.8 0 6.8-3.1 6.8-6.8 0-3.8-3.1-6.8-6.8-6.8zM453.2 355h-13.7c-3.8 0-6.8 3.1-6.8 6.8 0 3.8 3.1 6.8 6.8 6.8h13.7c3.8 0 6.8-3.1 6.8-6.8 0-3.8-3-6.8-6.8-6.8zM115.3 157c13.2 0 23.9-10.7 23.9-23.9s-10.7-23.9-23.9-23.9-23.9 10.7-23.9 23.9 10.7 23.9 23.9 23.9zm0-34.1c5.6 0 10.2 4.6 10.2 10.2s-4.6 10.2-10.2 10.2-10.2-4.6-10.2-10.2 4.6-10.2 10.2-10.2zM432.8 290.8c0 4 3.3 7.3 7.3 7.3s7.3-3.3 7.3-7.3-3.3-7.3-7.3-7.3-7.3 3.3-7.3 7.3zM385.5 256.2c-4 0-7.3 3.3-7.3 7.3s3.3 7.3 7.3 7.3 7.3-3.3 7.3-7.3-3.3-7.3-7.3-7.3zM222.3 266.2h59.1c2.4 0 4.7-1.3 5.9-3.4l29.6-51.2c1.2-2.1 1.2-4.7 0-6.8l-29.6-51.2c-1.2-2.1-3.5-3.4-5.9-3.4h-59.1c-2.4 0-4.7 1.3-5.9 3.4l-29.6 51.2c-1.2 2.1-1.2 4.7 0 6.8l29.6 51.2c1.2 2.1 3.4 3.4 5.9 3.4zm3.9-102.4h51.2l25.6 44.4-25.6 44.4h-51.2l-25.6-44.4 25.6-44.4z"/><path class="st0" d="M337.2 283.3c-1.2-2.1-3.5-3.4-5.9-3.4H309l27.6-47.8h63c2.4 0 4.7-1.3 5.9-3.4l45.3-78.5c1.2-2.1 1.2-4.7 0-6.8l-45.3-78.5c-1.2-2.1-3.5-3.4-5.9-3.4h-90.7c-2.4 0-4.7 1.3-5.9 3.4l-33.5 58h-63c-2.4 0-4.7 1.3-5.9 3.4L159.2 198h-55.1c-2.4 0-4.7 1.3-5.9 3.4l-45.3 78.5c-1.2 2.1-1.2 4.7 0 6.8l45.3 78.5c1.2 2.1 3.5 3.4 5.9 3.4h85.3l45.3 78.5c1.2 2.1 3.5 3.4 5.9 3.4h90.7c2.4 0 4.7-1.3 5.9-3.4l45.3-78.5c1.2-2.1 1.2-4.7 0-6.8l-45.3-78.5zm-28.3-146.8l19.7-34.1h51.2l25.6 44.4-25.6 44.4h-39.3l-31.6-54.7zm3.9-61.4h82.8l41.4 71.7-41.4 71.7h-51.2l3.9-6.8c1.2-2.1 1.2-4.7 0-6.8h35.4c2.4 0 4.7-1.3 5.9-3.4l29.6-51.2c1.2-2.1 1.2-4.7 0-6.8l-29.6-51.2c-1.2-2.1-3.5-3.4-5.9-3.4h-59.1c-2.4 0-4.7 1.3-5.9 3.4l-18.2 31.6c-1-.6-2.2-.9-3.4-.9h-11.9l27.6-47.9zm-102.4 61.4h82.8l41.4 71.7-41.4 71.7h-82.8L169 208.2l41.4-71.7zm-11.7 150.3l-23.6 40.9h-51.2l-25.6-44.4 25.6-44.4H171l27.7 47.9zm-132-3.5l41.4-71.7h47.2l7.9 13.7h-43.3c-2.4 0-4.7 1.3-5.9 3.4l-29.6 51.2c-1.2 2.1-1.2 4.7 0 6.8l29.6 51.2c1.2 2.1 3.5 3.4 5.9 3.4H179c2.4 0 4.7-1.3 5.9-3.4l25.6-44.4h18.3L193.3 355H108l-41.3-71.7zm260.7 153.6h-82.8l-41.4-71.7 41.4-71.7h82.8l41.4 71.7-41.4 71.7z"/><path class="st0" d="M315.5 307.2h-59.1c-2.4 0-4.7 1.3-5.9 3.4l-29.6 51.2c-1.2 2.1-1.2 4.7 0 6.8l29.6 51.2c1.2 2.1 3.5 3.4 5.9 3.4h59.1c2.4 0 4.7-1.3 5.9-3.4l29.6-51.2c1.2-2.1 1.2-4.7 0-6.8l-29.6-51.2c-1.2-2.1-3.4-3.4-5.9-3.4zm-3.9 102.4h-51.2l-25.6-44.4 25.6-44.4h51.2l25.6 44.4-25.6 44.4z"/></svg>
