<?xml version="1.0" encoding="utf-8"?>
<!-- Generator: Adobe Illustrator 24.2.1, SVG Export Plug-In . SVG Version: 6.00 Build 0)  -->
<svg version="1.1" id="Layer_1" xmlns="http://www.w3.org/2000/svg" xmlns:xlink="http://www.w3.org/1999/xlink" x="0px" y="0px"
	  viewBox="0 0 586.7 408.9" style="enable-background:new 0 0 586.7 408.9;" xml:space="preserve"
	>
<g>
	<path d="M27.2,193.8c-15.4-11.4-23.6-27.6-24.8-48.8h60.9c0.6,7.2,2.7,12.4,6.4,15.7c3.7,3.3,8.5,5,14.3,5c5.2,0,9.6-1.3,13-3.9
		c3.4-2.6,5.1-6.3,5.1-10.9c0-6-2.8-10.7-8.5-14c-5.6-3.3-14.8-7-27.4-11.1c-13.4-4.5-24.3-8.8-32.5-13
		c-8.3-4.2-15.5-10.3-21.6-18.4C6,86.3,3,75.7,3,62.7c0-13.2,3.3-24.5,9.9-34c6.6-9.4,15.7-16.6,27.4-21.4C52,2.4,65.2,0,79.9,0
		c23.9,0,43,5.6,57.3,16.8c14.3,11.2,21.9,26.9,22.9,47.1H98c-0.2-6.2-2.1-10.9-5.7-14c-3.6-3.1-8.2-4.7-13.9-4.7
		c-4.3,0-7.8,1.3-10.5,3.8c-2.7,2.5-4.1,6.1-4.1,10.8c0,3.9,1.5,7.2,4.5,10.1c3,2.8,6.8,5.2,11.2,7.3c4.5,2,11.1,4.6,19.8,7.7
		c13,4.5,23.8,8.9,32.2,13.3c8.5,4.4,15.7,10.5,21.9,18.4s9.2,17.8,9.2,29.9c0,12.2-3.1,23.2-9.2,32.9c-6.1,9.7-15,17.4-26.5,23
		c-11.6,5.6-25.2,8.5-41,8.5C62.2,210.8,42.5,205.1,27.2,193.8z"/>
	<path d="M246.4,3.2v205.6h-57.1V3.2H246.4z"/>
	<path d="M433.9,3.2v45.5h-54.8v160.1H322V48.7h-54.2V3.2H433.9z"/>
	<path d="M512.4,49v33.5H578V126h-65.6v37h74.4v45.8H455.2V3.2h131.5V49H512.4z"/>
</g>
<g>
	<path d="M4.4,403.1h59.8v4H0V251.2h4.4V403.1z"/>
	<path d="M117.9,398.8c-11.3-6.7-20.1-16.1-26.5-28.2c-6.3-12.1-9.5-25.8-9.5-41.2c0-15.4,3.2-29.1,9.5-41.2
		c6.3-12.1,15.2-21.5,26.5-28.2c11.3-6.7,24.1-10.1,38.4-10.1c14.3,0,27.1,3.4,38.4,10.1c11.3,6.7,20.1,16.1,26.5,28.2
		c6.3,12.1,9.5,25.8,9.5,41.2c0,15.4-3.2,29.1-9.5,41.2c-6.3,12.1-15.2,21.5-26.5,28.2c-11.3,6.7-24.1,10.1-38.4,10.1
		C142,408.9,129.2,405.5,117.9,398.8z M191.8,395.7c10.6-6.1,19-14.9,25.1-26.4c6.1-11.4,9.2-24.8,9.2-40c0-15.2-3.1-28.5-9.2-40
		c-6.1-11.4-14.5-20.2-25.1-26.3c-10.6-6.1-22.4-9.2-35.4-9.2c-13,0-24.8,3.1-35.4,9.2c-10.6,6.1-19,14.9-25.1,26.3
		c-6.1,11.4-9.2,24.8-9.2,40c0,15.2,3.1,28.5,9.2,40c6.1,11.4,14.5,20.2,25.1,26.4c10.6,6.1,22.4,9.2,35.4,9.2
		C169.3,404.9,181.1,401.8,191.8,395.7z"/>
	<path d="M396.6,297.5c-4.7-13-12.8-23.5-24.2-31.6c-11.4-8-25-12.1-40.6-12.1c-13,0-24.8,3.1-35.4,9.2c-10.6,6.1-19,14.9-25.1,26.3
		c-6.1,11.4-9.2,24.8-9.2,40c0,15.2,3.1,28.5,9.2,40c6.1,11.4,14.5,20.2,25.1,26.4c10.6,6.1,22.4,9.2,35.4,9.2
		c12.7,0,24.3-3,34.9-8.9c10.6-5.9,19-14.4,25.4-25.6c6.3-11.1,9.7-24.1,10-38.9h-73.5v-4h77.7v1.8c0,15.4-3.2,29.1-9.5,41.2
		c-6.3,12.1-15.2,21.5-26.5,28.2c-11.3,6.7-24.1,10.1-38.4,10.1c-14.3,0-27.1-3.4-38.4-10.1c-11.3-6.7-20.1-16.1-26.5-28.2
		c-6.3-12.1-9.5-25.8-9.5-41.2c0-15.4,3.2-29.1,9.5-41.2c6.3-12.1,15.2-21.5,26.5-28.2c11.3-6.7,24.1-10.1,38.4-10.1
		c16.8,0,31.2,4.3,43.2,12.8c12,8.6,20.7,20.1,26.1,34.8H396.6z"/>
	<path d="M468.7,398.8c-11.3-6.7-20.1-16.1-26.5-28.2c-6.3-12.1-9.5-25.8-9.5-41.2c0-15.4,3.2-29.1,9.5-41.2
		c6.3-12.1,15.2-21.5,26.5-28.2c11.3-6.7,24.1-10.1,38.4-10.1c14.3,0,27.1,3.4,38.4,10.1c11.3,6.7,20.1,16.1,26.5,28.2
		c6.3,12.1,9.5,25.8,9.5,41.2c0,15.4-3.2,29.1-9.5,41.2c-6.3,12.1-15.2,21.5-26.5,28.2c-11.3,6.7-24.1,10.1-38.4,10.1
		C492.7,408.9,479.9,405.5,468.7,398.8z M542.5,395.7c10.6-6.1,19-14.9,25.1-26.4c6.1-11.4,9.2-24.8,9.2-40c0-15.2-3.1-28.5-9.2-40
		c-6.1-11.4-14.5-20.2-25.1-26.3c-10.6-6.1-22.4-9.2-35.4-9.2c-13,0-24.8,3.1-35.4,9.2c-10.6,6.1-19,14.9-25.1,26.3
		c-6.1,11.4-9.2,24.8-9.2,40c0,15.2,3.1,28.5,9.2,40c6.1,11.4,14.5,20.2,25.1,26.4c10.6,6.1,22.4,9.2,35.4,9.2
		C520.1,404.9,531.9,401.8,542.5,395.7z"/>
</g>
</svg>
